<?xml version="1.0" standalone="no"?>
<!DOCTYPE svg PUBLIC "-//W3C//DTD SVG 20010904//EN"
 "http://www.w3.org/TR/2001/REC-SVG-20010904/DTD/svg10.dtd">
<svg version="1.0" xmlns="http://www.w3.org/2000/svg"
 width="400.000000pt" height="297.000000pt" viewBox="0 0 400.000000 297.000000"
 preserveAspectRatio="xMidYMid meet">

<g transform="translate(0.000000,297.000000) scale(0.100000,-0.100000)"
fill="#000000" stroke="none">
<path d="M0 1485 l0 -1485 2000 0 2000 0 0 1485 0 1485 -2000 0 -2000 0 0
-1485z m3273 734 c86 -24 146 -116 133 -206 -12 -92 -80 -154 -175 -161 -74
-5 -130 21 -168 80 -24 35 -28 52 -28 109 0 60 3 71 31 106 33 42 104 83 144
83 14 0 42 -5 63 -11z m-597 -260 c80 -25 157 -62 244 -118 152 -98 308 -102
608 -15 18 5 22 2 22 -14 0 -16 -14 -23 -78 -41 -134 -36 -193 -43 -317 -39
-134 5 -158 14 -307 107 -87 54 -211 99 -308 109 -53 6 -65 11 -68 26 -4 18 1
19 66 13 38 -4 101 -16 138 -28z m-626 -201 c0 -135 3 -164 16 -179 16 -17 15
-19 -10 -29 -36 -13 -46 -13 -52 5 -5 12 -9 12 -27 1 -40 -25 -65 -28 -101
-11 -70 34 -86 137 -30 196 31 32 86 52 121 43 21 -6 23 -3 23 34 0 26 -5 42
-15 46 -25 9 -17 22 23 39 20 8 40 15 45 16 4 1 7 -72 7 -161z m-929 132 c21
-12 25 -40 7 -58 -18 -18 -46 -14 -58 9 -9 16 -8 25 6 40 20 22 20 22 45 9z
m-441 -25 c54 -28 65 -77 26 -122 l-24 -27 22 -11 c31 -15 49 -60 39 -92 -18
-54 -53 -68 -179 -71 -70 -2 -114 0 -114 6 0 5 7 12 15 16 23 9 22 272 -2 298
-15 17 -12 18 86 18 71 0 111 -5 131 -15z m283 -107 c13 -15 17 -39 17 -100 0
-80 0 -80 25 -76 28 6 27 6 19 -17 -11 -27 -53 -38 -79 -21 -21 14 -27 14 -53
0 -76 -38 -144 42 -86 101 10 9 34 15 65 15 51 0 54 4 43 48 -8 27 -40 37 -78
22 -36 -13 -44 -6 -21 20 38 42 115 47 148 8z m389 22 c119 -34 118 -208 -2
-240 -114 -31 -203 93 -137 191 13 19 38 39 57 46 44 15 38 15 82 3z m289 0
c16 0 19 -7 19 -42 l-1 -43 -28 33 c-30 35 -52 40 -75 16 -22 -21 -15 -29 50
-60 59 -28 75 -57 55 -100 -16 -35 -65 -53 -128 -47 l-53 6 0 38 c0 22 2 39 4
39 3 0 18 -13 34 -30 34 -34 53 -37 76 -15 22 23 11 39 -45 65 -59 26 -78 57
-61 95 15 32 67 57 106 50 16 -3 37 -5 47 -5z m634 -4 c34 -14 55 -41 55 -70
0 -13 -14 -16 -80 -16 -48 0 -80 -4 -80 -10 0 -6 6 -26 14 -45 17 -41 51 -53
104 -37 20 6 38 10 39 8 2 -2 -8 -17 -22 -34 -32 -38 -72 -48 -118 -28 -44 18
-68 54 -74 109 -6 54 27 107 77 124 45 15 45 15 85 -1z m-1135 -115 c0 -65 -3
-133 -6 -150 -7 -35 -57 -91 -80 -91 -13 0 -12 4 1 30 18 34 22 265 5 275 -18
11 -10 26 23 40 57 25 57 25 57 -104z m2348 -73 c3 -17 -25 -18 -487 -18 -316
0 -492 4 -496 10 -3 6 -3 15 0 20 4 7 173 9 493 8 454 -3 487 -4 490 -20z
m-1363 -508 c26 -21 17 -27 -45 -29 -38 -1 -60 2 -60 9 0 6 7 13 15 16 23 9
22 280 -1 305 -15 16 -13 19 28 36 l43 19 3 -172 c2 -137 5 -174 17 -184z
m665 205 c40 21 86 19 110 -5 17 -17 20 -33 20 -109 0 -70 3 -90 15 -95 8 -3
15 -10 15 -16 0 -7 -22 -10 -60 -9 -62 2 -71 8 -45 29 11 9 15 32 15 79 0 90
-12 104 -72 88 -27 -7 -28 -9 -28 -81 0 -53 4 -77 15 -86 27 -22 16 -30 -45
-30 -61 0 -72 8 -45 30 23 19 22 276 -1 302 -16 17 -14 19 27 36 l44 19 3 -84
3 -83 29 15z m-2223 97 c-13 -14 -16 -46 -19 -155 l-3 -137 57 0 c52 0 59 3
83 33 l26 32 -3 -50 -3 -50 -127 -3 c-125 -3 -144 2 -113 28 12 10 15 40 15
150 0 113 -3 139 -15 144 -36 13 -11 26 52 26 63 0 65 -1 50 -18z m923 9 c0
-5 -7 -11 -15 -15 -11 -4 -15 -21 -15 -66 l0 -60 90 0 90 0 0 54 c0 35 -5 58
-15 66 -27 22 -16 30 45 30 61 0 72 -8 45 -30 -12 -10 -15 -39 -15 -145 0
-106 3 -135 15 -145 26 -22 17 -28 -45 -28 -62 0 -71 6 -45 28 10 9 15 32 15
76 l0 64 -90 0 -90 0 0 -64 c0 -44 5 -67 15 -76 28 -23 15 -31 -45 -29 -57 2
-73 10 -50 24 6 4 10 64 10 147 0 118 -3 145 -17 160 -15 17 -13 18 50 18 37
0 67 -4 67 -9z m-549 -114 c91 -61 62 -202 -47 -223 -46 -9 -78 1 -117 35 -29
27 -32 35 -32 86 0 53 3 59 37 91 47 43 106 47 159 11z m269 -19 c0 -45 -5
-47 -32 -12 -14 18 -28 24 -47 22 -42 -5 -34 -39 14 -61 54 -26 75 -46 75 -73
0 -60 -39 -85 -129 -81 l-61 2 0 43 c0 23 3 42 6 42 3 0 17 -13 31 -30 27 -32
63 -39 83 -15 16 20 7 31 -51 61 -107 54 -73 147 53 142 l58 -2 0 -38z m733
31 c25 -11 47 -47 47 -74 0 -12 -17 -15 -81 -15 l-81 0 7 -27 c12 -48 35 -65
80 -61 22 3 48 8 59 13 17 7 17 6 2 -22 -31 -61 -118 -68 -170 -14 -33 35 -44
97 -26 142 24 57 103 85 163 58z m422 -14 c14 -13 25 -36 25 -50 0 -25 -1 -25
-79 -25 l-78 0 5 -27 c8 -45 30 -63 78 -63 24 0 46 5 49 10 3 6 10 10 16 10
18 0 9 -22 -21 -52 -28 -27 -36 -30 -76 -25 -110 12 -151 143 -68 216 46 41
112 44 149 6z m250 13 c30 -14 31 -19 5 -43 -20 -18 -21 -18 -43 3 -30 28 -52
28 -71 0 -26 -37 -16 -108 18 -130 16 -11 84 -10 91 2 3 6 10 10 16 10 17 0 9
-22 -20 -51 -48 -48 -133 -32 -166 31 -17 34 -20 102 -4 131 26 50 115 74 174
47z m554 -2 c58 -30 79 -112 46 -175 -36 -70 -145 -79 -202 -17 -38 41 -44 95
-18 146 29 55 113 77 174 46z m281 -28 c0 -45 -5 -47 -32 -13 -21 27 -59 33
-76 12 -15 -18 -3 -32 43 -51 83 -35 99 -84 44 -130 -27 -23 -38 -26 -95 -23
l-64 2 0 43 c0 48 10 54 30 17 15 -29 55 -43 79 -28 28 18 17 37 -36 66 -64
34 -79 58 -63 97 15 37 44 49 113 47 l57 -1 0 -38z m-1960 -372 c0 -35 3 -71
6 -80 5 -12 0 -16 -17 -16 -23 0 -24 3 -24 72 0 67 7 87 28 88 4 0 7 -29 7
-64z m895 55 c7 -12 -35 -42 -47 -35 -5 3 -2 15 8 25 19 21 30 24 39 10z m376
-48 c0 -32 2 -68 5 -80 3 -17 -1 -23 -15 -23 -16 0 -18 9 -20 70 -1 39 1 75 4
80 15 24 25 5 26 -47z m-1929 -10 c10 -9 18 -25 18 -36 0 -27 -28 -57 -53 -57
-15 0 -18 -5 -13 -25 5 -21 3 -25 -16 -25 -22 0 -23 4 -23 75 0 71 1 74 25 78
14 2 29 5 34 6 5 0 18 -6 28 -16z m142 1 c9 -8 16 -26 16 -39 0 -13 3 -30 6
-38 4 -12 -4 -15 -43 -13 -37 1 -49 5 -51 19 -2 12 6 22 27 30 33 14 31 27 -3
27 -21 1 -21 1 -2 15 25 19 31 19 50 -1z m144 -1 c-2 -10 -10 -17 -17 -15 -10
2 -12 -7 -8 -38 5 -36 3 -40 -16 -40 -20 0 -22 5 -22 50 0 45 2 50 25 53 14 2
29 5 33 6 5 0 7 -7 5 -16z m131 8 c7 -5 10 -14 6 -20 -5 -9 -10 -9 -21 0 -19
15 -37 -1 -32 -27 2 -13 12 -19 31 -19 30 1 33 -5 15 -23 -28 -28 -78 -1 -78
43 0 13 10 31 22 39 25 18 37 19 57 7z m139 -3 c22 -22 13 -38 -19 -38 -20 0
-29 -4 -26 -12 2 -7 16 -13 30 -13 30 1 33 -5 15 -23 -27 -27 -78 -1 -78 40 0
44 51 73 78 46z m240 -5 c5 -10 12 -34 15 -54 l5 -37 -46 2 c-59 1 -71 29 -23
49 33 14 31 27 -3 27 -21 1 -21 1 -2 15 26 20 43 19 54 -2z m149 2 c3 -9 2
-19 -2 -23 -4 -4 -10 -1 -12 6 -5 14 -33 17 -33 3 0 -5 9 -11 20 -14 48 -12
30 -67 -21 -67 -23 0 -29 4 -29 22 0 17 3 19 12 10 7 -7 19 -12 28 -12 10 1 6
8 -12 21 -16 11 -28 26 -28 33 0 33 65 51 77 21z m211 3 c7 -7 12 -27 12 -45
0 -18 5 -33 11 -33 5 0 8 -4 5 -9 -3 -5 -27 -8 -53 -7 -37 1 -49 5 -51 19 -3
13 6 22 27 30 38 14 40 27 4 27 -27 1 -27 1 -9 15 24 18 38 19 54 3z m172 2
c0 -5 -4 -20 -10 -34 -7 -20 -16 -26 -40 -26 -20 0 -29 -4 -24 -11 3 -6 15 -8
26 -6 30 8 48 -3 48 -29 0 -30 -37 -49 -74 -40 -25 6 -25 9 -22 72 2 41 8 69
16 74 17 11 80 10 80 0z m118 -7 c-2 -10 -10 -17 -17 -15 -10 2 -12 -7 -8 -38
5 -36 3 -40 -16 -40 -20 0 -22 5 -22 50 0 45 2 50 25 53 14 2 29 5 33 6 5 0 7
-7 5 -16z m94 -50 c3 -38 1 -43 -17 -43 -17 0 -20 6 -20 50 0 36 4 50 15 53
17 3 18 0 22 -60z m137 58 c7 -5 10 -14 6 -20 -5 -9 -10 -9 -21 0 -10 9 -18 9
-25 2 -19 -19 -5 -48 25 -53 27 -5 28 -6 12 -19 -27 -22 -70 -3 -74 33 -6 47
39 81 77 57z m136 3 c27 -11 38 -53 20 -80 -27 -41 -95 -25 -95 23 0 46 35 72
75 57z m253 -6 c7 -7 12 -27 12 -45 0 -18 5 -33 11 -33 5 0 8 -4 5 -9 -9 -14
-83 -11 -96 4 -13 16 15 49 36 41 8 -3 14 1 14 10 0 12 -7 15 -25 12 -29 -6
-33 6 -7 21 23 14 36 13 50 -1z m152 -12 c0 -16 -3 -17 -12 -8 -7 7 -19 12
-27 12 -11 -1 -7 -8 12 -21 46 -35 32 -69 -29 -69 -18 0 -24 5 -24 22 0 17 3
19 12 10 14 -14 38 -16 38 -4 0 5 -11 14 -25 20 -29 13 -31 24 -9 46 22 22 64
17 64 -8z"/>
<path d="M3150 2172 c-19 -9 -45 -33 -58 -52 -20 -29 -23 -45 -20 -90 7 -98
63 -146 161 -138 90 7 143 70 135 158 -11 110 -120 172 -218 122z"/>
<path d="M1901 1734 c-44 -56 -17 -154 42 -154 37 0 47 19 47 92 0 56 -3 69
-19 78 -31 16 -48 12 -70 -16z"/>
<path d="M548 1790 l4 -60 34 0 c38 0 74 29 74 60 0 33 -36 60 -77 60 l-38 0
3 -60z"/>
<path d="M550 1635 l0 -65 38 0 c53 0 82 23 82 65 0 42 -29 65 -82 65 l-38 0
0 -65z"/>
<path d="M850 1606 c0 -32 12 -39 44 -26 16 6 26 17 26 30 0 16 -7 20 -35 20
-30 0 -35 -3 -35 -24z"/>
<path d="M1276 1738 c-34 -48 -11 -159 36 -174 38 -12 61 29 56 98 -6 87 -56
128 -92 76z"/>
<path d="M2196 1744 c-25 -25 -19 -34 24 -34 41 0 52 14 28 38 -16 16 -33 15
-52 -4z"/>
<path d="M820 1240 c-26 -62 8 -160 55 -160 31 0 45 26 45 87 0 66 -18 97 -56
101 -27 3 -33 -2 -44 -28z"/>
<path d="M1862 1264 c-33 -23 -27 -34 18 -34 28 0 40 4 40 15 0 25 -34 36 -58
19z"/>
<path d="M2262 1264 c-34 -23 -27 -34 24 -34 46 0 46 0 32 22 -19 29 -29 31
-56 12z"/>
<path d="M3059 1243 c-15 -39 -6 -119 16 -143 23 -25 61 -26 75 -1 15 29 12
108 -5 141 -21 41 -71 43 -86 3z"/>
<path d="M780 840 c0 -25 4 -31 18 -28 11 2 17 12 17 28 0 16 -6 26 -17 28
-14 3 -18 -3 -18 -28z"/>
<path d="M930 820 c0 -5 4 -10 9 -10 6 0 13 5 16 10 3 6 -1 10 -9 10 -9 0 -16
-4 -16 -10z"/>
<path d="M1348 873 c7 -3 16 -2 19 1 4 3 -2 6 -13 5 -11 0 -14 -3 -6 -6z"/>
<path d="M1580 820 c0 -5 4 -10 9 -10 6 0 13 5 16 10 3 6 -1 10 -9 10 -9 0
-16 -4 -16 -10z"/>
<path d="M1940 820 c0 -5 4 -10 9 -10 6 0 13 5 16 10 3 6 -1 10 -9 10 -9 0
-16 -4 -16 -10z"/>
<path d="M2095 870 c-7 -12 2 -30 16 -30 5 0 9 9 9 20 0 21 -15 27 -25 10z"/>
<path d="M2087 784 c-10 -11 3 -24 24 -24 10 0 19 7 19 15 0 15 -31 21 -43 9z"/>
<path d="M2604 866 c-9 -24 0 -51 19 -54 15 -3 18 2 15 29 -3 35 -24 51 -34
25z"/>
<path d="M2855 820 c3 -5 10 -10 16 -10 5 0 9 5 9 10 0 6 -7 10 -16 10 -8 0
-12 -4 -9 -10z"/>
</g>
</svg>
